<svg width="23" height="26" viewBox="0 0 23 26" fill="none" xmlns="http://www.w3.org/2000/svg">
<g clip-path="url(#clip0_194_2501)">
<path d="M19.1667 14.5C19.1667 15.5586 20.0248 16.4167 21.0833 16.4167C22.1419 16.4167 23 15.5586 23 14.5C23 13.4415 22.1419 12.5834 21.0833 12.5834C20.0248 12.5834 19.1667 13.4415 19.1667 14.5Z" fill="#828282"/>
<path d="M9.58306 14.5C9.58306 15.5586 10.4412 16.4167 11.4997 16.4167C12.5583 16.4167 13.4164 15.5586 13.4164 14.5C13.4164 13.4415 12.5583 12.5834 11.4997 12.5834C10.4412 12.5834 9.58306 13.4415 9.58306 14.5Z" fill="#828282"/>
<path d="M0.000264645 14.5C0.000264645 15.5586 0.85839 16.4167 1.91694 16.4167C2.97549 16.4167 3.83362 15.5586 3.83362 14.5C3.83362 13.4415 2.97549 12.5834 1.91694 12.5834C0.85839 12.5834 0.000264645 13.4415 0.000264645 14.5Z" fill="#828282"/>
</g>
<defs>
<clipPath id="clip0_194_2501">
<path d="M11.5 3C17.8513 3 23 8.14873 23 14.5C23 20.8513 17.8513 26 11.5 26L0 26L0 3L11.5 3Z" fill="white"/>
</clipPath>
</defs>
</svg>
