<svg width="23" height="26" viewBox="0 0 23 26" fill="none" xmlns="http://www.w3.org/2000/svg">
<g clip-path="url(#clip0_246_2122)">
<path d="M19.1667 14.5002C19.1667 15.5587 20.0248 16.4168 21.0833 16.4168C22.1419 16.4168 23 15.5587 23 14.5002C23 13.4416 22.1419 12.5835 21.0833 12.5835C20.0248 12.5835 19.1667 13.4416 19.1667 14.5002Z" fill="#F4D258"/>
<path d="M9.58306 14.5002C9.58306 15.5587 10.4412 16.4168 11.4997 16.4168C12.5583 16.4168 13.4164 15.5587 13.4164 14.5002C13.4164 13.4416 12.5583 12.5835 11.4997 12.5835C10.4412 12.5835 9.58306 13.4416 9.58306 14.5002Z" fill="#F4D258"/>
<path d="M0.000264645 14.5002C0.000264645 15.5587 0.85839 16.4168 1.91694 16.4168C2.97549 16.4168 3.83362 15.5587 3.83362 14.5002C3.83362 13.4416 2.97549 12.5835 1.91694 12.5835C0.85839 12.5835 0.000264645 13.4416 0.000264645 14.5002Z" fill="#F4D258"/>
</g>
<defs>
<clipPath id="clip0_246_2122">
<path d="M11.5 3C17.8513 3 23 8.14873 23 14.5C23 20.8513 17.8513 26 11.5 26L0 26L0 3L11.5 3Z" fill="white"/>
</clipPath>
</defs>
</svg>
